<svg width="128" height="128" viewBox="0 0 128 128" fill="none" xmlns="http://www.w3.org/2000/svg">
  <defs>
    <linearGradient id="bg" x1="0" y1="0" x2="128" y2="128" gradientUnits="userSpaceOnUse">
      <stop offset="0" stop-color="#7C3AED"/>
      <stop offset="0.55" stop-color="#5B4CF5"/>
      <stop offset="1" stop-color="#06B6D4"/>
    </linearGradient>
    <linearGradient id="flame" x1="64" y1="42" x2="64" y2="88" gradientUnits="userSpaceOnUse">
      <stop offset="0" stop-color="#FBBF24"/>
      <stop offset="0.5" stop-color="#F59E0B"/>
      <stop offset="1" stop-color="#F43F5E"/>
    </linearGradient>
    <linearGradient id="flameInner" x1="64" y1="58" x2="64" y2="84" gradientUnits="userSpaceOnUse">
      <stop offset="0" stop-color="#FEF3C7"/>
      <stop offset="1" stop-color="#FBBF24"/>
    </linearGradient>
  </defs>

  <!-- רקע — ריבוע מעוגל בגרדיאנט המותג -->
  <rect width="128" height="128" rx="28" fill="url(#bg)"/>

  <!-- בועת צ'אט לבנה עם זנב -->
  <path d="M26 34
           C26 26.268 32.268 20 40 20
           H88
           C95.732 20 102 26.268 102 34
           V74
           C102 81.732 95.732 88 88 88
           H56
           L38 104
           C36.2 105.6 33.5 104.35 33.5 102
           V88
           H40
           C32.268 88 26 81.732 26 74
           Z"
        fill="white" opacity="0.97"/>

  <!-- להבת הנר (Ner = נר) -->
  <path d="M64 30
           C64 30 82 48 82 64
           C82 74.5 74 82 64 82
           C54 82 46 74.5 46 64
           C46 48 64 30 64 30 Z"
        fill="url(#flame)"/>
  <!-- ליבת הלהבה -->
  <path d="M64 52
           C64 52 73 61 73 68.5
           C73 74 69 78 64 78
           C59 78 55 74 55 68.5
           C55 61 64 52 64 52 Z"
        fill="url(#flameInner)"/>

  <!-- ניצוץ AI -->
  <path d="M96 96 L99 104 L107 107 L99 110 L96 118 L93 110 L85 107 L93 104 Z" fill="white"/>
  <path d="M106 82 L107.8 86.6 L112.4 88.4 L107.8 90.2 L106 94.8 L104.2 90.2 L99.6 88.4 L104.2 86.6 Z" fill="white" opacity="0.85"/>
</svg>
